<svg width="143" height="26" viewBox="0 0 143 26" fill="none" xmlns="http://www.w3.org/2000/svg">
<path d="M1.33261 15.54C0.916609 16.346 0.734609 17.204 0.734609 18.036C0.734609 20.662 2.65861 23.054 5.62261 23.158C8.11861 23.236 11.7066 20.922 11.7066 16.216V15.748C13.2146 15.852 12.9806 18.088 14.1506 20.922C15.8406 25.186 18.4146 25.29 19.6106 25.186C20.8326 25.056 21.6386 24.484 22.0806 23.808L21.6906 23.496C20.9886 24.12 20.0006 24.042 19.6106 23.964C17.8166 23.704 17.1666 21.39 16.5426 19.128C16.2046 17.906 15.8406 16.71 15.1646 15.904C16.4646 15.358 17.8166 13.772 17.8166 11.952C17.8166 11.198 17.5826 10.418 17.0366 9.664C15.3726 7.35 10.3806 4.594 10.1726 0.459999L9.91261 0.33C9.57461 1.006 9.31461 2.306 9.31461 3.71C9.31461 4.88 9.49661 6.102 9.93861 7.038C11.0306 9.352 14.4366 10.834 15.1646 12.706C15.2686 12.966 15.3206 13.278 15.3206 13.59C15.3206 14.188 15.1126 14.812 14.5926 15.358C14.1506 15.046 13.6306 14.89 12.9546 14.89C12.5906 14.89 12.1746 14.942 11.7066 15.046V10.47L9.31461 8.026V17.854C9.31461 20.506 6.42861 20.818 5.38861 20.74C3.07461 20.636 1.54061 19.102 1.54061 17.022C1.54061 16.58 1.61861 16.138 1.74861 15.67L1.33261 15.54ZM6.01261 11.068L4.53061 12.55L6.01261 14.058L7.52061 12.55L6.01261 11.068ZM6.01261 14.188L4.53061 15.67L6.01261 17.178L7.52061 15.67L6.01261 14.188ZM25.0074 6.778C24.8254 9.534 18.6114 10.288 18.6114 15.358V16.528C18.6114 18.946 19.9114 20.428 21.1594 21L23.4994 18.868C23.8894 19.856 24.5394 20.558 25.4754 21L28.5174 18.426L28.1014 17.802L26.7754 18.816C25.8394 18.894 25.5274 17.776 25.4754 16.138V11.224H24.2274C24.6434 10.886 25.0074 10.522 25.2414 10.08C25.5274 9.508 25.6574 8.806 25.6574 8.156C25.6574 7.532 25.5274 6.986 25.2934 6.7L25.0074 6.778ZM23.0574 16.138C23.0574 16.788 23.1094 17.386 23.2134 17.932L22.2774 18.66C21.4714 18.634 21.0814 17.854 21.0034 16.528V15.28C21.0034 13.72 22.0174 12.836 23.0574 12.082V16.138ZM27.3525 12.186V21H29.7185V11.302L29.9525 11.094C31.2525 11.614 31.5905 13.044 31.5905 14.76V18.894L33.9305 20.818V14.578C33.9305 13.434 33.8005 12.446 33.5665 11.614L34.1645 11.094C35.4645 11.614 35.8025 13.044 35.8025 14.76V21.91L38.1425 23.808V14.578C38.1425 11.458 37.2845 9.534 35.2565 8.884L33.2025 10.73C32.7345 9.82 32.0065 9.196 31.0445 8.884L27.3525 12.186ZM45.4977 6.778C45.3157 9.534 39.1017 10.288 39.1017 15.358V16.528C39.1017 18.946 40.4017 20.428 41.6497 21L43.9897 18.868C44.3797 19.856 45.0297 20.558 45.9657 21L49.0077 18.426L48.5917 17.802L47.2657 18.816C46.3297 18.894 46.0177 17.776 45.9657 16.138V11.224H44.7177C45.1337 10.886 45.4977 10.522 45.7317 10.08C46.0177 9.508 46.1477 8.806 46.1477 8.156C46.1477 7.532 46.0177 6.986 45.7837 6.7L45.4977 6.778ZM43.5477 16.138C43.5477 16.788 43.5997 17.386 43.7037 17.932L42.7677 18.66C41.9617 18.634 41.5717 17.854 41.4937 16.528V15.28C41.4937 13.72 42.5077 12.836 43.5477 12.082V16.138ZM54.4728 21L57.5668 18.426L57.1248 17.802L55.7988 18.816C54.8368 18.894 54.4468 17.62 54.4468 15.852V1.786L52.1328 3.346V10.106L50.6768 8.91C48.6488 9.612 47.8428 10.99 47.8428 14.188V16.138C47.8428 18.556 48.5448 20.22 50.2088 21L52.6268 18.946C52.9908 19.856 53.5888 20.61 54.4728 21ZM52.3408 18.01L51.5088 18.66C50.4948 18.582 50.2088 17.62 50.2088 15.852V13.98C50.2088 12.42 50.6507 11.224 51.6648 11.068L52.1328 11.354V16.138C52.1328 16.762 52.1848 17.412 52.3408 18.01ZM48.5968 6.414L50.0788 7.896L51.5868 6.414L50.0788 4.906L48.5968 6.414ZM62.611 6.778C62.429 9.534 56.215 10.288 56.215 15.358V16.528C56.215 18.946 57.515 20.428 58.763 21L61.103 18.868C61.493 19.856 62.143 20.558 63.079 21L66.121 18.426L65.705 17.802L64.379 18.816C63.443 18.894 63.131 17.776 63.079 16.138V11.224H61.831C62.247 10.886 62.611 10.522 62.845 10.08C63.131 9.508 63.261 8.806 63.261 8.156C63.261 7.532 63.131 6.986 62.897 6.7L62.611 6.778ZM60.661 16.138C60.661 16.788 60.713 17.386 60.817 17.932L59.881 18.66C59.075 18.634 58.685 17.854 58.607 16.528V15.28C58.607 13.72 59.621 12.836 60.661 12.082V16.138ZM79.23 15.93C79.36 16.398 79.438 16.84 79.438 17.282C79.438 19.362 77.904 20.922 75.59 21C74.55 21.078 71.664 20.766 71.664 18.114V14.318C71.586 10.47 70.26 9.326 68.648 8.884L67.322 10.184H64.956V21H67.322V11.276L67.686 10.938C68.7 11.354 69.272 12.368 69.272 13.772V16.216C69.272 20.922 72.86 23.236 75.356 23.158C78.32 23.054 80.244 20.818 80.244 18.27C80.244 17.464 80.062 16.632 79.646 15.826L79.23 15.93ZM105.556 3.424C105.114 2.748 104.308 2.176 103.086 2.046C101.89 1.942 99.108 2.644 97.002 8.026C95.832 10.86 96.066 13.096 94.558 13.2V13.252C94.532 13.252 94.506 13.278 94.48 13.278V4.23L92.088 1.786V17.854C92.088 20.506 89.202 20.818 88.162 20.74C85.848 20.636 84.314 19.102 84.314 17.022C84.314 16.58 84.392 16.138 84.522 15.67L84.106 15.54C83.69 16.346 83.508 17.204 83.508 18.036C83.508 20.662 85.432 23.054 88.396 23.158C90.892 23.236 94.48 20.922 94.48 16.216V14.11C95.754 14.656 95.91 18.27 97.002 20.922C98.692 25.186 101.266 25.29 102.462 25.186C103.684 25.056 104.49 24.484 104.932 23.808L104.542 23.496C103.84 24.12 102.852 24.042 102.462 23.964C100.668 23.704 100.018 21.39 99.394 19.128C98.926 17.438 98.25 15.072 96.872 13.902C98.328 13.356 98.9 11.64 99.394 9.82C100.018 7.558 101.292 3.528 103.086 3.268C103.476 3.19 104.464 3.112 105.166 3.736L105.556 3.424ZM107.248 6.778C107.066 9.534 100.852 10.288 100.852 15.358V16.528C100.852 18.946 102.152 20.428 103.4 21L105.74 18.868C106.13 19.856 106.78 20.558 107.716 21L110.758 18.426L110.342 17.802L109.016 18.816C108.08 18.894 107.768 17.776 107.716 16.138V11.224H106.468C106.884 10.886 107.248 10.522 107.482 10.08C107.768 9.508 107.898 8.806 107.898 8.156C107.898 7.532 107.768 6.986 107.534 6.7L107.248 6.778ZM105.298 16.138C105.298 16.788 105.35 17.386 105.454 17.932L104.518 18.66C103.712 18.634 103.322 17.854 103.244 16.528V15.28C103.244 13.72 104.258 12.836 105.298 12.082V16.138ZM111.959 21V11.302L112.193 11.094C112.973 11.406 113.675 12.108 113.649 13.044L115.937 11.77C115.547 10.288 114.507 9.43 113.181 8.988L109.593 12.186V21H111.959ZM123.287 18.348L121.701 19.492C121.233 19.336 118.763 19.128 118.763 17.022V16.606L120.843 16.71C122.507 15.904 122.949 14.136 122.897 12.654C122.871 10.678 121.649 9.378 120.089 8.884L116.397 12.186V17.074C116.397 20.272 119.205 21 120.999 21.364L123.729 18.868L123.287 18.348ZM118.763 15.696V11.302L118.997 11.094C119.777 11.406 120.375 12.238 120.453 13.174C120.557 14.448 120.063 15.618 119.153 15.696H118.763ZM117.177 6.414L118.659 7.896L120.193 6.414L118.659 4.906L117.177 6.414ZM120.219 6.414L121.701 7.896L123.235 6.414L121.701 4.906L120.219 6.414ZM131.108 18.348L129.522 19.492C129.054 19.336 126.584 19.128 126.584 17.022V16.606L128.664 16.71C130.328 15.904 130.77 14.136 130.718 12.654C130.692 10.678 129.47 9.378 127.91 8.884L124.218 12.186V17.074C124.218 20.272 127.026 21 128.82 21.364L131.55 18.868L131.108 18.348ZM126.584 15.696V11.302L126.818 11.094C127.598 11.406 128.196 12.238 128.274 13.174C128.378 14.448 127.884 15.618 126.974 15.696H126.584ZM124.998 6.414L126.48 7.896L128.014 6.414L126.48 4.906L124.998 6.414ZM128.04 6.414L129.522 7.896L131.056 6.414L129.522 4.906L128.04 6.414ZM132.038 12.186V21H134.404V11.302L134.638 11.094C135.938 11.614 136.276 13.044 136.276 14.76V18.894L138.616 20.818V14.578C138.616 13.434 138.486 12.446 138.252 11.614L138.85 11.094C140.15 11.614 140.488 13.044 140.488 14.76V21.91L142.828 23.808V14.578C142.828 11.458 141.97 9.534 139.942 8.884L137.888 10.73C137.42 9.82 136.692 9.196 135.73 8.884L132.038 12.186Z" fill="#578E1C"/>
</svg>
