<svg xmlns="http://www.w3.org/2000/svg" viewBox="0 0 374.95 94.02"><path d="M1585.77,469.4c-.24.27-.49.75-.72.75-.39,0-.68-.46-.69-.86s.35-.56.7-.55S1585.62,469,1585.77,469.4Z" transform="translate(-1535.39 -396.5)" style="fill:#f5f5f5"/><path d="M1910.34,475.87c-.41,0-.83,0-1.24,0h-70.48c-1.82,0-1.85,0-2.25-1.81-.15-.67-.6-.41-1-.45-.75-.07-1.55.19-2.18-.54a1.36,1.36,0,0,1,0-2c.19-.22.42-.4.61-.62,1.48-1.69,1.4-3-.34-4.32a20.63,20.63,0,0,0-5.07-2.66,1.6,1.6,0,0,0-1.32.11l-3.39,1.59c-1.06.49-1.82.14-2-1-.58-3-3.1-4.27-5.29-5.81-.44-.32-.77.13-1.09.35-.63.43-1.25.94-2,.53s-.72-1.24-.75-2l-.33-10.73c-.12-3.93-.31-7.86-.31-11.79,0-2.11-.28-4.2-.28-6.31a2.5,2.5,0,0,1,.39-1.78c.24-.29.32-.58,0-.87a.56.56,0,0,0-.79,0,.52.52,0,0,0-.06.85,2.19,2.19,0,0,1,.39,1.66q-.23,7.57-.46,15.16c-.12,3.63-.25,7.27-.37,10.91,0,.76,0,1.53-.86,1.9s-1.34-.31-1.9-.8c-1.35-1.16-2.74-2.26-4.09-3.41-.54-.46-.9-.17-1.3.18-1.25,1.12-2.55,2.21-3.76,3.37a2,2,0,0,1-2.41.43c-.86-.38-.66-1.19-.56-2a6.23,6.23,0,0,0-2.09-5.38c-1.55-1.56-3.64-2.32-5.34-3.66-.32-.25-.52,0-.77.13-1.43.93-2.88,1.83-4.31,2.75-1.23.8-2.28.33-2.27-1.17,0-3.94-.25-7.87-.26-11.82,0-3.09-.27-6.21-.39-9.32-.09-2.56-.16-5.13-.28-7.69a2.27,2.27,0,0,1,.5-1.61c.22-.29,0-.56-.2-.76a.47.47,0,0,0-.67,0c-.2.16-.44.39-.29.62,1.14,1.71.48,3.58.41,5.34-.13,3-.12,6-.24,8.95-.19,5-.32,9.93-.47,14.9,0,.83-.07,1.65-1.1,1.82s-1.32-.53-1.66-1.33a8.85,8.85,0,0,0-3.66-3.81c-4.5-2.95-8.17-.6-11.1,2.72a3.1,3.1,0,0,1-3.37,1.14,1.4,1.4,0,0,1-1-1.53c0-1.17-.07-2.34,0-3.5a3.41,3.41,0,0,0-1.59-3.18,16.3,16.3,0,0,0-4.5-2.13,1,1,0,0,0-.72,0c-2.31.86-4.65,1.62-6,3.93-.56.95-1.52.8-2.34.46s-.82-1-.53-1.71c2.08-5.05.35-9.31-2.91-13.12-3.57-4.18-8.29-6.75-13.3-8.84-1.94-.81-1.93-.81-3-2.68,0,2-1.46,2.15-2.6,2.63-4.68,2-9.11,4.35-12.66,8.06-2.91,3-4.88,6.53-4.49,11a8.81,8.81,0,0,0,.78,2.88c.33.73.31,1.47-.46,1.82s-1.76.48-2.25-.38c-1.32-2.31-3.61-3.08-5.87-3.94-.19-.07-.43-.2-.59-.14-2.32.72-4.61,1.53-6.15,3.58a2.79,2.79,0,0,0-.38,1.8c0,1,0,2.08,0,3.12,0,.78,0,1.66-.89,1.82s-2.27.6-3-.5a11.9,11.9,0,0,0-6.77-4.62,1.62,1.62,0,0,0-1-.16c-3.22,1.05-6.29,2.3-7.64,5.81a1.23,1.23,0,0,1-1.5.82,1.14,1.14,0,0,1-1-1.25c0-3.61-.21-7.22-.25-10.83,0-2.55-.21-5.13-.38-7.7-.21-3-.19-5.93-.25-8.91,0-.73-.19-1.5.46-2.11.28-.26.1-.53-.13-.75a.57.57,0,0,0-.79-.07c-.22.19-.53.46-.25.72,1,.94.51,2.06.47,3.15-.16,4.43-.27,8.86-.4,13.28q-.22,7-.47,14c-.05,1.52-1,2-2.25,1.19-1.44-.92-2.89-1.81-4.32-2.74-.26-.17-.45-.35-.76-.1-1.44,1.14-3.2,1.79-4.61,3-2,1.65-3.17,3.63-2.76,6.31.11.69.14,1.43-.63,1.71a1.88,1.88,0,0,1-2.21-.31c-1.18-1.3-2.78-2.09-4-3.4-.57-.63-1.2-.73-1.93.06-1.27,1.37-3,2.21-4.21,3.73a1,1,0,0,1-1.17.12,1.39,1.39,0,0,1-.76-1.33q-.1-3.62-.23-7.23c-.14-4-.34-8.05-.4-12.07a44.62,44.62,0,0,0-.32-5.27,17.65,17.65,0,0,0-.4,3.12c.18,3.82-.12,7.61-.29,11.42-.12,2.44-.06,4.9-.1,7.35,0,1.83-.11,3.66-.19,5.49-.07,1.63-1.07,2.17-2.39,1.19a1.59,1.59,0,0,0-2.36.07c-.76.69-1.66,1.25-2.45,1.92a5.54,5.54,0,0,0-1.93,3.26c-.24,1.28-1,1.61-2.2,1l-.11-.07c-3.14-2.45-6.07-1.51-9,.54-2.37,1.67-2.53,2.44-.93,4.87.68,1,.28,2.07-1,2.19-.86.07-1,.42-1,1.16,0,1.77-.32,2.05-2.16,2.05h-70a2.61,2.61,0,0,0-1.58.17v-1.75c.37.31.8.17,1.21.17l69.73,0c.88,0,1.5,0,1.46-1.21-.06-1.8,0-1.81,1.79-2.12,0-.08,0-.18,0-.24-2.14-3.37-.59-4.92,1.66-6.44a23.23,23.23,0,0,1,4.45-2.25,1.62,1.62,0,0,0,.49-2.8c-.87-.8-.84-1.5.12-2.33-.24,1.53.08,1.91,1.78,2-.37.48-1,.63-1,1.46s.31,1.5,1.28,1.81a22,22,0,0,1,2.82,1.25c.38.19.67.32.82-.26.59-2.29,2.27-3.71,4.09-5,.51-.36,1-.7,1.54-1.07a2.38,2.38,0,0,0,.63-3.35c-.28-.5-.79-1,.14-1.71-.68.62-.52,1.09,0,1.29.77.3.7.83.62,1.45a2.22,2.22,0,0,0,1.12,2.42c.71.42.89.16.91-.5.1-3.45.22-6.91.28-10.36,0-.95-1.08-1.43-1.23-2.46,1.28.19,1.37-.57,1.37-1.56,0-2,.09-3.92.18-5.87,0-1.25.18-2.48-.76-3.53-.3-.33-.57-.87.31-.86.61,0,.67-.38.65-.83-.11-1.62.46-3.28-.49-4.86-.44-.74.14-1.41.76-1.92a2.54,2.54,0,0,0,.57-3.64c-.43-.61-.43-1.14.24-1.55l.1,0c-.47,1.26-.18,1.78,1.2,1.23,0,0,.06,0,.09.06-1.19,1.42-1.08,2.74.36,4a1.65,1.65,0,0,1,.55,2.21c-.87,1.59-.18,3.26-.34,4.88a.35.35,0,0,0,.35.42c1.39,0,.73.71.39,1.19a3.68,3.68,0,0,0-.61,2.58c.13,2.16.18,4.33.2,6.49,0,1,0,1.81,1.42,1.56-1.71,2.15-1.21,4.53-1.14,6.85,0,1.19,0,2.37,0,3.9l4.83-4c1-.85,1-2,1-3.19,0-.42-.32-.53-.58-.74-1.1-.89-1.1-1.72.22-3-.37.86-.49,1.51,0,2.09s1.17.47,2,.34c-1.52.59-1.4,1.76-1.26,3a2.36,2.36,0,0,0,.69,1.42c1.57,1.59,3.57,2.62,5.41,4.42,0-.9-.12-1.45-.11-2A7.54,7.54,0,0,1,1650,448a13.17,13.17,0,0,1,3.93-2.83,4.11,4.11,0,0,0,2.75-4.62,4.22,4.22,0,0,1,0-.87c0-.06.08-.12.33-.43a23.94,23.94,0,0,1,0,2.42,2.88,2.88,0,0,0,1.62,2.86c1,.66,2.15,1.26,3.21,1.92.51.33.72.28.74-.37.07-3.16.16-6.33.27-9.49,0-1.07-1.1-1.53-1.22-2.61,1.28.2,1.34-.59,1.36-1.56,0-2.37.09-4.74.24-7.11.07-1-.55-1.61-.89-2.39-.11-.25-.52-.73.09-.73,1.11,0,.92-.76.9-1.37-.05-1.46.38-2.94-.47-4.37-.48-.8.19-1.47.85-2a2.53,2.53,0,0,0,.44-3.57,1.09,1.09,0,0,1,.19-1.59c-.22,1.12.07,1.72,1.2,1.51a2.58,2.58,0,0,0,.42,3.63,1.94,1.94,0,0,1,.62,2.71c-.68,1.48-.15,3.1-.18,4.66,0,.09.12.27.19.28,1.82.19.55,1.09.3,1.58a3,3,0,0,0-.4,1.52c.1,2.57.16,5.15.25,7.73,0,.36-.11.91.38.94,1.67.09.67.87.32,1.33a2.83,2.83,0,0,0-.59,1.93c.06,2.62,0,5.23,0,7.85l.36.08.81-1.13a12.11,12.11,0,0,1,6.33-4.24,1.78,1.78,0,0,0,1.51-2.05c-.07-1,0-2,0-2.95l.59,0c0,.93,0,1.88,0,2.81a2,2,0,0,0,1.63,2.26,11.58,11.58,0,0,1,6.22,4.17,1.36,1.36,0,0,0,1.59.66c.76-.22.37-.91.41-1.38a12.08,12.08,0,0,0,0-2.25,4.49,4.49,0,0,1,2.21-4.32,15.51,15.51,0,0,1,3.89-2,1.94,1.94,0,0,0,1.43-2c0-.54,0-1.08,0-1.62,0-.77.1-1.46-.82-2s-.78-1.69.38-2.77c-.31.85-.44,1.49.11,2.08a1.77,1.77,0,0,0,2,.33c-.18.78-1.37.63-1.18,1.53.28,1.27-.41,2.69.61,3.83.13.15.25.38.42.44,2.25.86,4.45,1.79,6,3.68.34-.18.33-.36.29-.51-1.51-5.66.65-10.17,4.43-14.18s8.38-6.38,13.27-8.48a4,4,0,0,0,2.56-3.75c.1-1.87,0-3.74.13-5.62a1.35,1.35,0,0,0-1-1.57,3.72,3.72,0,0,1-2.52-3.55,4,4,0,0,1,2.19-3.89c.18.39-.13.58-.25.82a3.69,3.69,0,0,0,4.21,5.32,3.76,3.76,0,0,1,1.45-.22h0a4.07,4.07,0,0,1-2.58,1.78c-.57.12-.74.38-.72.94a63.21,63.21,0,0,0,.18,6.61,3.93,3.93,0,0,0,2.38,3.1,39.66,39.66,0,0,1,12.69,7.8c3.48,3.36,5.8,7.27,5.62,12.33,0,1.11-.51,2.14-.51,3.31a15.46,15.46,0,0,1,6.3-3.91,1.64,1.64,0,0,0,.93-1.51c0-.87,0-1.75,0-2.62a1.21,1.21,0,0,0-.59-1.12c-1.11-.85-1.08-1.76,0-2.76-.25,1.88.23,2.41,2.26,2.33-2,1.12-1,2.88-1.1,4.35,0,.68.62,1.27,1.41,1.55a14.88,14.88,0,0,1,4,2,4.64,4.64,0,0,1,2.12,4.14c0,.91,0,1.83,0,2.74,0,.38-.17.91.42,1,.44.09,1,.15,1.26-.29a13,13,0,0,1,7.12-4.8,1.4,1.4,0,0,0,1-1.52c0-1.09,0-2.19,0-3.28h.57v3.25a1.43,1.43,0,0,0,1.08,1.6,12.53,12.53,0,0,1,7.43,5.32c.45-.24.33-.61.34-.91.06-1.92,0-3.84.2-5.74a5.13,5.13,0,0,0-1.51-4.25c1.59.2,1.66-.65,1.68-1.64,0-2.08.08-4.17.23-6.24a4.66,4.66,0,0,0-.87-3.13c-.27-.4-.46-.79.29-.8.49,0,.68-.26.66-.7-.07-1.63.48-3.29-.43-4.88-.42-.74,0-1.44.64-2,1.44-1.27,1.57-2.2.57-3.77-.29-.45-.25-.69.21-1.43-.11,1.3.1,1.52,1.56,1.31a1.8,1.8,0,0,0-.84,2,2.19,2.19,0,0,0,1,1.88,1.79,1.79,0,0,1,.53,2.6c-.74,1.53-.2,3.18-.11,4.77,0,.5.75.13,1.14.43-2.21,3.45-.52,7.23-.86,10.86-.1,1.1.9.54,1.33.83,0,.08,0,.2,0,.24-1.3,1.36-1.28,3-1.16,4.75.16,2.24.16,4.49.2,6.74,0,.89.28,1.18,1,.52a4.72,4.72,0,0,1,.52-.35c3.56-2.24,3.56-2.24,4.27-6.2a10.75,10.75,0,0,1,.1,1.79,3.11,3.11,0,0,0,1.83,3.13c.79.47,1.6.9,2.36,1.4,3.66,2.37,4.59,4.09,4.8,8.95,1.06-.82,2-1.57,3-2.35.65-.52,1.23-1.12,1.89-1.62,1.2-.89,1.07-2.15,1-3.4,0-.36-.31-.44-.53-.63-1-.86-1.07-1.49-.08-2.77.1.71-.18,1.38.34,1.89s1.19.46,2,.22c-.51.8-1.48,1-1.34,2.17a4.06,4.06,0,0,0,1.52,3c1.08.9,2.17,1.78,3.32,2.58.23.16.41.5.74.32s.19-.43.19-.67c.07-2.29.11-4.58.21-6.87,0-1.09-1-1.57-1.26-2.6,1.45.17,1.43-.76,1.43-1.84,0-1.78.09-3.57.17-5.36.06-1.37.2-2.73-.82-3.88-.25-.28-.57-.8.26-.79.67,0,.73-.45.71-.92-.08-1.59.42-3.2-.46-4.76-.46-.83.21-1.47.86-2a2.44,2.44,0,0,0,.46-3.6,1.07,1.07,0,0,1,.23-1.57c-.3,1.27.19,1.7,1.34,1.43a2.48,2.48,0,0,0,.19,3.69c1.18,1,1.18,1.43.6,2.79s-.17,3.1,0,4.65c0,.51.75.13,1.1.43-2.12,3.48-.57,7.25-.83,10.89-.05.6.08.61,1.55.92-2.16,1.79-1.3,4.15-1.35,6.32,0,2.39,0,4.79,0,7.51,1.47-.84,2.47-1.4,2.28-2.91a1.46,1.46,0,0,0-.51-1.16c-.52-.41-.51-1,.07-1.72,0,.89.19,1.5,1,1.51.29,0,.28.08.15.36-.75,1.52-.51,2.38.85,3.32a20.48,20.48,0,0,1,3.88,3.13,4.64,4.64,0,0,1,1.24,2c.24,1.19.71,1.36,1.71.73a16.21,16.21,0,0,1,2-.93c1.57-.7,1.79-1.84.59-3.05-.64-.65-.6-1.29.25-2.28,0,.66-.18,1.26.3,1.7s1,.34,1.66.21c-.46.62-1.16.76-1.1,1.6s.24,1.48,1.24,1.82a17.46,17.46,0,0,1,4.55,2.32c2.8,2,3.11,3.72,1.14,6.5l-.42.61a4,4,0,0,0,2,.16c.9-.07,1.37.17,1.21,1.15-.2,1.15.27,1.45,1.42,1.45q35-.08,70-.06c.41,0,.84.13,1.2-.18ZM1634.13,426.3c-.14-.39-.35-.65-.71-.66s-.71.19-.7.54.3.86.69.86C1633.65,427.05,1633.89,426.57,1634.13,426.3Z" transform="translate(-1535.39 -396.5)" style="fill:#7cb03b"/><path d="M1677.77,445.53l.17-.31-.12-.06-.06.36Z" transform="translate(-1535.39 -396.5)" style="fill:#7cb03b"/><path d="M1648.23,480.28a5.72,5.72,0,0,0-.63,2.64,5.33,5.33,0,0,0,5.18,5.43c2.64.08,6.44-2.37,6.44-7.36v-.49c1.6.11,1.35,2.48,2.59,5.48,1.79,4.52,4.52,4.63,5.79,4.52a3.43,3.43,0,0,0,2.61-1.46l-.41-.33a2.66,2.66,0,0,1-2.2.49c-1.9-.27-2.59-2.72-3.25-5.12a9.38,9.38,0,0,0-1.46-3.42,4.83,4.83,0,0,0,2.81-4.18,4.1,4.1,0,0,0-.83-2.43c-1.76-2.45-7-5.37-7.27-9.75l-.28-.14a9,9,0,0,0-.63,3.58,8.55,8.55,0,0,0,.66,3.53c1.16,2.45,4.76,4,5.54,6a2.61,2.61,0,0,1,.16.94,2.66,2.66,0,0,1-.77,1.87,2.89,2.89,0,0,0-1.74-.49,6.2,6.2,0,0,0-1.32.16v-4.84l-2.53-2.59v10.41c0,2.81-3.06,3.14-4.16,3.06a3.94,3.94,0,0,1-4.08-3.94,5.31,5.31,0,0,1,.22-1.44Zm5-4.74-1.57,1.57,1.57,1.6,1.6-1.6Zm0,3.3-1.57,1.57,1.57,1.6,1.6-1.6Zm20.12-7.85c-.19,2.92-6.77,3.72-6.77,9.09v1.24a5,5,0,0,0,2.7,4.74l2.48-2.26a4,4,0,0,0,2.09,2.26l3.22-2.73-.44-.66-1.4,1.08c-1,.08-1.32-1.1-1.38-2.84V475.7h-1.32a4,4,0,0,0,1.07-1.21,4.57,4.57,0,0,0,.44-2,2.57,2.57,0,0,0-.38-1.54Zm-2.06,9.92a10.2,10.2,0,0,0,.16,1.9l-1,.77c-.85,0-1.27-.85-1.35-2.26V480c0-1.65,1.08-2.59,2.18-3.39Zm4.55-4.19v9.34h2.51V475.79l.24-.22c1.38.55,1.74,2.06,1.74,3.88v4.38l2.48,2v-6.61a11.55,11.55,0,0,0-.39-3.14l.64-.55c1.37.55,1.73,2.06,1.73,3.88V487l2.48,2v-9.78c0-3.31-.91-5.35-3.06-6l-2.17,1.95a3.85,3.85,0,0,0-2.29-1.95ZM1695,471c-.19,2.92-6.77,3.72-6.77,9.09v1.24a5,5,0,0,0,2.7,4.74l2.48-2.26a4,4,0,0,0,2.09,2.26l3.22-2.73-.44-.66-1.4,1.08c-1,.08-1.33-1.1-1.38-2.84V475.7h-1.32a4,4,0,0,0,1.07-1.21,4.71,4.71,0,0,0,.44-2,2.64,2.64,0,0,0-.38-1.54Zm-2.06,9.92a10.2,10.2,0,0,0,.16,1.9l-1,.77c-.85,0-1.27-.85-1.35-2.26V480c0-1.65,1.08-2.59,2.18-3.39Zm11.57,5.15,3.28-2.73-.47-.66-1.4,1.08c-1,.08-1.44-1.27-1.44-3.14v-14.9l-2.45,1.65v7.16l-1.54-1.27c-2.15.75-3,2.21-3,5.59v2.07c0,2.56.74,4.33,2.5,5.15l2.57-2.17A3.8,3.8,0,0,0,1704.53,486.06Zm-2.26-3.17-.88.69c-1.07-.08-1.38-1.1-1.38-3v-2c0-1.65.47-2.92,1.55-3.08l.49.3v5.07A8.18,8.18,0,0,0,1702.27,482.89Zm-4-12.28,1.57,1.57,1.59-1.57-1.59-1.6Zm14.84.38c-.19,2.92-6.77,3.72-6.77,9.09v1.24a5,5,0,0,0,2.7,4.74l2.48-2.26a4,4,0,0,0,2.09,2.26l3.22-2.73-.44-.66-1.4,1.08c-1,.08-1.33-1.1-1.38-2.84V475.7h-1.32a4,4,0,0,0,1.07-1.21,4.71,4.71,0,0,0,.44-2,2.64,2.64,0,0,0-.38-1.54Zm-2.06,9.92a10.2,10.2,0,0,0,.16,1.9l-1,.77c-.85,0-1.27-.85-1.35-2.26V480c0-1.65,1.08-2.59,2.18-3.39Zm19.67-.22a5.24,5.24,0,0,1,.22,1.43,3.91,3.91,0,0,1-4.08,3.94c-1.1.08-4.15-.25-4.15-3.06v-4c-.09-4.07-1.49-5.29-3.2-5.75l-1.41,1.37h-2.5v11.46h2.5v-10.3l.39-.36a3,3,0,0,1,1.68,3V481c0,5,3.8,7.44,6.45,7.36a5.17,5.17,0,0,0,5.18-5.18,5.63,5.63,0,0,0-.64-2.59Zm27.89-13.25A3.42,3.42,0,0,0,1756,466c-1.27-.11-4.22.63-6.45,6.34-1.24,3-1,5.37-2.59,5.48v.05s0,0-.08,0v-9.59l-2.54-2.58v17c0,2.81-3.05,3.14-4.16,3.06a3.93,3.93,0,0,1-4.07-3.94,5.31,5.31,0,0,1,.22-1.44l-.44-.13a5.74,5.74,0,0,0-.64,2.64,5.33,5.33,0,0,0,5.18,5.43c2.65.08,6.45-2.37,6.45-7.36v-2.23c1.35.58,1.51,4.41,2.67,7.22,1.79,4.52,4.52,4.63,5.78,4.52A3.46,3.46,0,0,0,1758,489l-.41-.33a2.68,2.68,0,0,1-2.21.49c-1.9-.27-2.59-2.72-3.25-5.12-.49-1.79-1.21-4.3-2.67-5.54,1.54-.58,2.15-2.39,2.67-4.32.66-2.4,2-6.67,3.92-6.94a2.63,2.63,0,0,1,2.2.49Zm1.79,3.55c-.19,2.92-6.77,3.72-6.77,9.09v1.24a5,5,0,0,0,2.7,4.74l2.48-2.26a4,4,0,0,0,2.09,2.26l3.22-2.73-.44-.66-1.4,1.08c-1,.08-1.32-1.1-1.38-2.84V475.7h-1.32a4,4,0,0,0,1.07-1.21,4.57,4.57,0,0,0,.44-2,2.57,2.57,0,0,0-.38-1.54Zm-2.06,9.92a10.2,10.2,0,0,0,.16,1.9l-1,.77c-.85,0-1.26-.85-1.35-2.26V480c0-1.65,1.08-2.59,2.18-3.39Zm7.06,5.15V475.79l.24-.22a2.26,2.26,0,0,1,1.55,2.06l2.42-1.35a4.12,4.12,0,0,0-2.92-2.94l-3.8,3.38v9.34Zm12-2.81-1.68,1.21c-.5-.16-3.12-.38-3.12-2.61v-.44l2.21.11a4.34,4.34,0,0,0,2.17-4.3,4.09,4.09,0,0,0-3-4l-3.91,3.49v5.18c0,3.39,3,4.16,4.87,4.55l2.9-2.65Zm-4.8-2.81v-4.65l.25-.22a2.63,2.63,0,0,1,1.55,2.2c.11,1.35-.42,2.59-1.38,2.67Zm-1.68-9.83,1.57,1.57,1.63-1.57-1.63-1.6Zm3.23,0,1.57,1.57,1.62-1.57-1.62-1.6Zm11.53,12.64-1.68,1.21c-.49-.16-3.11-.38-3.11-2.61v-.44l2.2.11a4.33,4.33,0,0,0,2.18-4.3,4.1,4.1,0,0,0-3-4l-3.92,3.49v5.18c0,3.39,3,4.16,4.88,4.55l2.89-2.65Zm-4.79-2.81v-4.65l.25-.22a2.62,2.62,0,0,1,1.54,2.2c.11,1.35-.41,2.59-1.38,2.67Zm-1.68-9.83,1.57,1.57,1.63-1.57-1.63-1.6Zm3.22,0,1.57,1.57,1.63-1.57L1784,469Zm4.24,6.11v9.34h2.51V475.79l.24-.22c1.38.55,1.74,2.06,1.74,3.88v4.38l2.48,2v-6.61a11.55,11.55,0,0,0-.39-3.14l.64-.55c1.37.55,1.73,2.06,1.73,3.88V487l2.48,2v-9.78c0-3.31-.91-5.35-3.06-6l-2.17,1.95a3.85,3.85,0,0,0-2.29-1.95Z" transform="translate(-1535.39 -396.5)" style="fill:#578e1c"/></svg>